<?xml version="1.0" standalone="no"?>
<!DOCTYPE svg PUBLIC "-//W3C//DTD SVG 20010904//EN"
 "http://www.w3.org/TR/2001/REC-SVG-20010904/DTD/svg10.dtd">
<svg version="1.0" xmlns="http://www.w3.org/2000/svg"
 width="300.000000pt" height="238.000000pt" viewBox="0 0 300.000000 238.000000"
 preserveAspectRatio="xMidYMid meet">
<metadata>
Created by potrace 1.10, written by Peter Selinger 2001-2011
</metadata>
<g transform="translate(0.000000,238.000000) scale(0.100000,-0.100000)"
fill="#000000" stroke="none">
<path d="M10 1195 l0 -1185 1485 0 1485 0 0 1185 c0 1164 0 1185 -19 1185 -19
0 -20 -21 -18 -1165 0 -640 -3 -1168 -7 -1172 -12 -12 -2868 -12 -2883 0 -10
7 -13 254 -13 1173 0 1028 -2 1164 -15 1164 -13 0 -15 -138 -15 -1185z"/>
<path d="M1315 1800 c-3 -5 3 -11 13 -14 10 -4 29 -17 41 -30 13 -14 29 -22
36 -20 6 3 26 -11 43 -31 18 -19 34 -34 36 -33 18 11 123 -142 111 -162 -4 -6
1 -20 9 -32 10 -13 16 -44 16 -74 0 -48 2 -52 28 -59 15 -3 37 -16 50 -27 70
-66 -39 -163 -231 -204 -58 -13 -86 -25 -109 -46 -17 -16 -27 -32 -23 -36 4
-4 10 -1 12 6 3 6 11 12 19 12 8 0 14 4 14 9 0 5 26 15 58 21 157 30 272 96
300 170 12 32 -16 91 -51 107 -17 8 -27 23 -32 45 -9 44 -45 150 -56 164 -5 6
-5 15 -1 19 4 5 1 5 -5 1 -9 -5 -13 1 -13 18 0 17 -18 40 -64 81 -83 74 -189
135 -201 115z"/>
<path d="M1294 1759 c4 -19 9 -42 11 -51 2 -9 17 -43 34 -75 17 -32 31 -66 31
-75 0 -9 -22 -39 -50 -66 -38 -38 -50 -56 -49 -78 1 -30 3 -27 13 17 4 17 23
36 57 58 48 30 51 34 45 64 -6 30 -5 31 10 15 29 -28 22 -77 -14 -107 -45 -36
-42 -57 11 -72 23 -7 48 -19 55 -28 9 -11 35 -17 90 -19 55 -2 73 0 62 7 -8 6
-23 11 -32 11 -14 0 -18 12 -20 67 -2 36 -7 68 -13 70 -6 2 -9 -24 -7 -68 3
-64 2 -71 -13 -65 -9 3 -25 6 -36 6 -15 0 -19 7 -19 37 0 35 0 36 20 18 28
-25 25 -6 -5 35 -14 19 -25 47 -25 62 0 15 -4 28 -10 28 -5 0 -10 7 -10 15 0
8 -5 15 -10 15 -13 0 -55 48 -56 63 0 7 -10 28 -22 47 -12 19 -24 47 -27 62
-4 15 -11 31 -17 34 -8 5 -9 -4 -4 -27z m139 -323 c-5 -25 -27 -41 -44 -30
-15 9 -10 25 12 45 26 23 38 17 32 -15z"/>
<path d="M1440 1653 c14 -9 53 -45 88 -79 68 -69 83 -72 25 -4 -39 46 -109
100 -127 99 -6 0 0 -7 14 -16z"/>
<path d="M1280 1372 c0 -17 46 -51 95 -69 53 -20 63 -40 44 -91 -10 -25 -49
-45 -63 -31 -15 14 -36 11 -36 -5 0 -23 18 -29 65 -22 39 6 45 11 59 47 9 22
16 55 16 73 0 32 -2 35 -42 41 -54 9 -99 27 -121 49 -9 10 -17 13 -17 8z"/>
<path d="M1506 1267 c-10 -27 -34 -69 -53 -95 -34 -45 -34 -46 -6 -19 38 35
86 121 81 145 -2 10 -11 -2 -22 -31z"/>
<path d="M1579 1284 c-12 -15 -11 -16 9 -10 12 4 22 5 22 2 0 -21 -28 -57 -58
-75 -27 -16 -30 -20 -12 -15 29 8 102 52 112 68 9 12 -26 46 -47 46 -7 0 -19
-7 -26 -16z"/>
<path d="M1292 1101 c19 -16 25 -27 20 -44 -5 -19 -2 -18 20 8 l26 30 -32 6
c-17 3 -38 9 -46 13 -8 4 -3 -2 12 -13z"/>
<path d="M1026 938 c-28 -38 -49 -108 -40 -132 10 -25 41 -38 63 -27 10 6 35
8 55 4 22 -3 42 -1 50 7 12 9 20 8 38 -4 31 -22 86 -20 126 4 l33 20 26 -20
25 -20 26 20 25 20 19 -20 c23 -24 34 -25 55 -5 14 14 18 14 40 0 23 -16 26
-15 47 4 20 19 24 20 36 6 16 -19 59 -20 66 0 4 8 12 15 20 15 8 0 14 7 14 15
0 8 5 14 12 13 7 -2 19 16 26 40 8 24 19 41 25 39 14 -4 56 -77 57 -99 0 -21
37 -48 56 -41 16 6 74 125 74 152 0 31 -27 46 -60 34 -16 -6 -34 -7 -41 -2
-23 14 -48 10 -65 -10 -16 -18 -17 -18 -35 0 -27 27 -117 26 -147 -1 -12 -12
-22 -16 -22 -11 0 21 -41 34 -66 20 -19 -10 -27 -10 -36 -1 -18 18 -45 14 -61
-8 l-14 -20 -18 20 c-23 25 -50 26 -67 1 -13 -19 -48 -15 -63 8 -3 6 -28 11
-54 11 -50 0 -81 -20 -81 -53 0 -26 -15 -20 -44 18 -35 45 -67 46 -100 3z m96
-63 c23 -60 24 -70 11 -74 -9 -1 -20 4 -25 13 -11 20 -57 21 -64 1 -5 -13 -44
-23 -44 -11 0 2 11 28 23 57 13 30 27 62 30 72 14 37 41 13 69 -58z m180 53
c21 -21 21 -23 4 -26 -10 -2 -23 1 -29 7 -14 14 -44 14 -53 0 -8 -13 16 -31
34 -24 7 2 23 0 37 -5 28 -11 34 -50 11 -69 -21 -18 -97 -10 -110 11 -14 23 0
35 24 20 27 -17 60 -15 60 3 0 10 -10 15 -29 15 -47 0 -61 10 -61 41 0 50 72
67 112 27z m116 -10 c-3 -29 -1 -31 30 -32 30 -1 32 1 32 32 0 25 4 32 20 32
18 0 20 -7 20 -75 0 -68 -2 -75 -20 -75 -16 0 -20 7 -20 31 0 28 -2 30 -32 27
-29 -3 -33 -6 -30 -30 3 -23 -1 -28 -17 -28 -19 0 -21 6 -21 75 0 69 2 75 21
75 17 0 20 -5 17 -32z m192 -43 c0 -68 -2 -75 -20 -75 -18 0 -20 7 -20 75 0
68 2 75 20 75 18 0 20 -7 20 -75z m178 58 c-3 -15 -12 -17 -46 -15 -37 3 -42
1 -42 -17 0 -17 6 -21 35 -21 24 0 35 -5 35 -15 0 -10 -11 -15 -35 -15 -31 0
-35 -3 -35 -25 0 -16 -6 -25 -15 -25 -12 0 -15 15 -15 75 l0 75 61 0 c52 0 60
-2 57 -17z m108 -15 c17 -34 19 -33 49 17 6 10 18 16 28 14 15 -4 13 -10 -13
-49 -16 -25 -30 -57 -30 -72 0 -21 -5 -28 -20 -28 -16 0 -20 7 -20 33 0 18
-11 48 -25 69 -30 45 -31 48 -5 48 12 0 26 -12 36 -32z"/>
<path d="M292 704 c-29 -20 -28 -36 4 -51 22 -10 24 -10 13 3 -9 11 -9 21 -1
39 14 29 13 30 -16 9z"/>
<path d="M358 685 c3 -21 10 -35 21 -38 14 -3 16 1 13 25 -2 16 -12 33 -21 38
-14 7 -16 4 -13 -25z"/>
<path d="M458 713 c-11 -3 -18 -14 -18 -27 0 -12 -6 -28 -12 -35 -11 -11 -10
-13 5 -7 10 3 23 6 28 6 5 0 9 14 9 31 0 26 3 30 23 27 15 -2 22 -10 22 -25 1
-27 11 -39 18 -20 3 8 -1 24 -9 36 -15 20 -30 24 -66 14z"/>
<path d="M583 713 c-19 -7 -16 -60 4 -72 10 -5 26 -5 40 0 13 5 28 7 35 5 7
-1 10 -1 6 1 -5 3 -8 15 -8 28 0 34 -40 53 -77 38z m47 -23 c13 -25 5 -40 -21
-40 -14 0 -19 7 -19 30 0 35 23 41 40 10z"/>
<path d="M1052 700 c-27 -25 -27 -29 -4 -46 25 -20 27 -18 27 26 1 22 0 40 0
40 -1 0 -11 -9 -23 -20z"/>
<path d="M1218 713 c-12 -3 -18 -14 -18 -33 0 -16 -6 -31 -12 -33 -9 -4 -8 -6
2 -6 25 -1 37 12 42 47 2 17 4 31 4 31 -1 -1 -9 -3 -18 -6z"/>
<path d="M1382 711 c-21 -13 -11 -65 13 -68 11 -2 14 0 8 3 -16 7 -17 46 -1
62 14 14 0 16 -20 3z"/>
<path d="M1434 704 c18 -18 20 -36 6 -50 -7 -7 2 -10 27 -11 21 0 32 2 26 4
-16 6 -17 63 -1 63 6 0 8 3 5 6 -4 4 -12 2 -20 -4 -8 -7 -18 -7 -27 -2 -24 15
-33 11 -16 -6z"/>
<path d="M1540 713 c-28 -11 -38 -28 -28 -46 15 -28 38 -20 38 13 0 34 7 38
26 13 12 -17 13 -16 14 5 0 22 -17 27 -50 15z"/>
<path d="M2219 713 c-11 -2 -18 -17 -21 -39 -3 -26 -1 -33 10 -29 7 3 16 5 18
5 2 0 4 14 4 31 0 26 3 30 23 27 16 -2 23 -11 25 -32 3 -23 0 -27 -12 -23 -8
3 -18 2 -21 -3 -4 -6 3 -10 14 -10 11 0 25 9 31 19 13 25 13 27 -6 45 -15 16
-32 18 -65 9z"/>
<path d="M2388 709 c-10 -5 -18 -21 -18 -34 0 -18 8 -26 34 -35 48 -15 86 3
86 42 0 21 5 28 20 28 32 0 37 -30 9 -52 l-24 -19 25 6 c14 4 31 14 38 23 17
22 15 45 -3 39 -8 -4 -17 -2 -20 3 -3 4 -30 8 -60 8 -47 -1 -55 -3 -55 -19 0
-11 5 -19 10 -19 6 0 10 7 10 15 0 8 5 15 10 15 6 0 10 -14 10 -30 0 -28 -3
-30 -31 -28 -28 2 -30 5 -27 35 2 18 4 33 3 33 0 0 -8 -5 -17 -11z"/>
<path d="M2598 687 c16 -32 30 -47 46 -47 5 0 3 7 -4 15 -7 8 -10 24 -7 36 3
12 3 19 0 16 -3 -3 -15 -2 -28 3 -23 9 -23 8 -7 -23z"/>
<path d="M200 700 c0 -5 9 -19 20 -30 20 -20 20 -20 20 0 0 10 -9 24 -20 30
-14 7 -20 7 -20 0z"/>
<path d="M732 694 c-7 -13 -13 -14 -31 -5 -17 10 -21 9 -21 -4 0 -8 7 -15 15
-15 8 0 15 -4 15 -9 0 -5 9 -11 20 -14 16 -4 18 -2 11 11 -6 10 -6 23 0 34 12
22 3 24 -9 2z"/>
<path d="M794 675 c0 -30 2 -32 41 -34 51 -2 72 17 55 48 -15 28 -17 26 -12
-10 4 -29 3 -30 -24 -27 -24 2 -29 8 -29 30 1 18 -4 26 -15 25 -10 -1 -15 -12
-16 -32z"/>
<path d="M1125 690 c4 -12 2 -26 -3 -33 -8 -9 -3 -12 17 -12 22 0 26 3 20 15
-4 8 -10 23 -13 33 -3 9 -10 17 -16 17 -7 0 -9 -8 -5 -20z"/>
<path d="M1600 678 c0 -15 -4 -28 -10 -28 -5 0 -10 6 -10 13 0 8 -3 7 -10 -3
-14 -23 10 -31 39 -12 14 9 28 17 29 18 2 1 1 11 -2 22 -10 30 -36 23 -36 -10z"/>
<path d="M1673 690 c-13 -19 -8 -30 14 -30 14 0 18 36 5 44 -4 2 -13 -4 -19
-14z"/>
<path d="M1726 701 c-9 -14 4 -41 20 -41 15 0 17 10 8 34 -7 18 -20 21 -28 7z"/>
<path d="M1793 694 c-20 -21 -15 -29 17 -30 34 -1 38 6 13 29 -15 13 -20 13
-30 1z"/>
<path d="M2042 698 c-17 -17 -15 -40 4 -36 21 4 39 48 21 48 -7 0 -18 -5 -25
-12z"/>
<path d="M2124 678 c0 -27 4 -33 22 -33 15 0 19 4 13 15 -4 8 -10 23 -13 33
-9 28 -22 19 -22 -15z"/>
<path d="M2695 700 c-3 -5 -15 -10 -26 -10 -10 0 -19 -4 -19 -10 0 -15 40 -12
40 3 1 7 6 5 14 -5 15 -20 26 -23 26 -7 0 17 -28 40 -35 29z"/>
</g>
</svg>
