<?xml version="1.0" standalone="no"?>
<!DOCTYPE svg PUBLIC "-//W3C//DTD SVG 20010904//EN"
 "http://www.w3.org/TR/2001/REC-SVG-20010904/DTD/svg10.dtd">
<svg version="1.0" xmlns="http://www.w3.org/2000/svg"
 width="753.000000pt" height="597.000000pt" viewBox="0 0 753.000000 597.000000"
 preserveAspectRatio="xMidYMid meet">
<metadata>
Created by potrace 1.10, written by Peter Selinger 2001-2011
</metadata>
<g transform="translate(0.000000,597.000000) scale(0.100000,-0.100000)"
fill="#4d8acb" stroke="none">
<path d="M10 4190 l0 -1780 2230 0 2230 0 0 1780 0 1780 -2230 0 -2230 0 0
-1780z m2114 788 c-4 -6 -2 -8 3 -5 15 9 60 -29 79 -65 21 -40 12 -45 -30 -18
-20 12 -42 20 -48 18 -7 -3 7 -17 32 -33 69 -43 168 -143 215 -215 38 -59 43
-72 48 -149 l7 -83 -31 6 c-18 3 -40 6 -50 6 -17 0 -19 9 -19 93 0 91 -8 117
-36 117 -9 0 -10 -10 -3 -37 5 -21 9 -66 9 -100 l0 -63 -32 0 c-70 0 -78 7
-78 64 l1 51 24 -27 c44 -50 50 -23 8 38 -30 44 -46 101 -31 110 5 3 -2 18
-16 33 -15 15 -23 30 -20 34 4 4 -5 11 -19 16 -34 13 -92 92 -75 102 8 5 9 12
2 21 -13 16 -12 27 5 56 7 14 18 21 27 18 9 -4 14 1 14 15 0 11 5 17 10 14 6
-4 7 -11 4 -17z m158 -123 c19 -22 43 -55 53 -74 16 -32 13 -31 -47 24 -46 42
-64 65 -60 78 6 23 11 20 54 -28z m-17 -535 c-7 -21 -21 -53 -31 -71 -15 -31
-18 -32 -25 -14 -6 16 -8 17 -8 3 -1 -9 -5 -19 -10 -22 -5 -4 -5 10 0 32 5 20
9 53 9 72 1 33 1 34 15 16 14 -19 15 -19 15 6 0 21 4 25 24 21 24 -5 24 -6 11
-43z m99 34 c14 -5 14 -9 -1 -37 l-16 -31 28 18 c35 23 40 16 21 -28 -9 -23
-31 -46 -59 -63 -86 -54 -85 -53 -47 -42 43 11 40 11 40 -1 0 -5 -7 -10 -16
-10 -8 0 -13 -4 -10 -9 13 -20 -66 -65 -129 -74 -42 -6 -26 5 30 19 l30 8 -32
4 c-18 2 -33 6 -33 9 0 3 18 25 40 50 24 27 51 75 67 119 29 76 41 86 87 68z
m-691 -637 c20 -51 37 -96 37 -100 0 -17 -42 -6 -47 13 -4 16 -14 20 -50 20
-36 0 -46 -4 -50 -20 -3 -13 -14 -20 -29 -20 -26 0 -27 -8 16 100 12 30 26 65
31 78 5 14 17 22 32 22 20 0 29 -12 60 -93z m269 81 c8 -7 18 -21 21 -30 5
-14 1 -18 -17 -18 -13 0 -26 7 -30 15 -7 20 -60 19 -77 -1 -19 -23 13 -44 68
-44 34 0 46 -5 59 -24 13 -22 14 -29 2 -53 -12 -26 -18 -28 -79 -31 -69 -3
-99 10 -99 44 0 19 37 18 48 -2 6 -11 20 -14 48 -12 31 2 39 7 39 23 0 17 -8
21 -51 25 -28 3 -59 11 -68 19 -20 17 -21 65 0 85 19 20 113 22 136 4z m178
-34 l0 -45 53 3 52 3 3 43 c3 34 7 42 23 42 18 0 19 -8 19 -100 0 -92 -1 -100
-19 -100 -16 0 -20 8 -23 38 l-3 37 -52 3 -53 3 0 -40 c0 -34 -3 -41 -20 -41
-19 0 -20 7 -20 100 0 93 1 100 20 100 17 0 20 -7 20 -46z m290 -54 c0 -100 0
-100 -25 -100 -25 0 -25 0 -25 100 0 100 0 100 25 100 25 0 25 0 25 -100z
m260 85 c0 -12 -13 -15 -60 -15 -60 0 -60 0 -60 -30 0 -29 2 -30 45 -30 38 0
45 -3 45 -20 0 -17 -7 -20 -45 -20 -45 0 -45 0 -45 -35 0 -28 -4 -35 -20 -35
-19 0 -20 7 -20 100 l0 100 80 0 c64 0 80 -3 80 -15z m171 -25 c13 -22 26 -40
30 -40 4 0 18 18 30 40 16 29 29 40 46 40 22 0 22 -2 -17 -65 -27 -43 -40 -77
-40 -100 0 -28 -4 -35 -20 -35 -16 0 -20 7 -20 38 0 26 -12 55 -40 100 -39 61
-39 62 -15 62 17 0 30 -11 46 -40z m836 -347 c-4 -3 -7 0 -7 7 0 7 3 10 7 7 3
-4 3 -10 0 -14z"/>
<path d="M2260 4134 c-17 -9 -20 -14 -9 -14 9 0 22 7 29 15 15 18 13 18 -20
-1z"/>
<path d="M1601 3727 c-16 -41 -14 -47 15 -47 22 0 24 3 18 23 -14 48 -22 54
-33 24z"/>
</g>
</svg>
